<svg id="Layer_1" xmlns="http://www.w3.org/2000/svg" width="456" height="75" viewBox="0 0 456 75"><path fill="#FFF" d="M117.366 30.023c0 3.812 3.543 4.346 7.195 5.503 5.932 1.906 9.901 3.261 9.901 9.637 0 7.142-5.307 9.119-12.234 9.119-3.402 0-7.161-.374-10.49-1.141l.534-4.186c2.512.445 5.717.818 8.282.818 3.169 0 8.351.036 8.351-4.364 0-3.846-3.026-4.361-7.051-5.572-5.023-1.515-9.939-2.761-9.939-9.422 0-6.786 4.737-8.709 11.078-8.709 4.167 0 7.196.357 10.758 1.14l-.516 4.096c-2.425-.445-5.093-.818-7.944-.818-3.134 0-7.925.052-7.925 3.899zm27.794 23.831h-5.449v-23.83c0-1.958.089-3.775.213-5.609 3.401-1.549 8.46-2.708 13.125-2.708 3.848 0 6.394.873 8.05 2.298 3.064-1.39 6.984-2.298 10.991-2.298 9.706 0 11.13 5.325 11.13 11.666v20.482h-5.449V34.12c0-5.432-1.319-7.979-7.177-7.979-1.907 0-4.776.553-7.056 1.78.5 1.639.642 3.492.642 5.451v20.482h-5.449V34.12c0-5.432-1.32-7.979-7.179-7.979-1.816 0-4.648.57-6.234 1.319-.123 1.388-.16 3.169-.16 4.647v21.747zm44.316-15.869c0-11.862 3.723-16.279 14.018-16.279 10.312 0 14.015 4.595 14.015 16.279 0 11.666-3.704 16.297-14.015 16.297-10.296 0-14.018-4.418-14.018-16.297zm22.565 0c0-9.066-1.958-11.827-8.547-11.827-6.484 0-8.514 2.37-8.514 11.827s2.03 11.844 8.514 11.844c6.552 0 8.547-2.761 8.547-11.844zm10.638 0c0-11.862 3.723-16.279 14.019-16.279 10.311 0 14.015 4.595 14.015 16.279 0 11.666-3.704 16.297-14.015 16.297-10.297 0-14.019-4.418-14.019-16.297zm22.565 0c0-9.066-1.958-11.827-8.547-11.827-6.484 0-8.514 2.37-8.514 11.827s2.029 11.844 8.514 11.844c6.551 0 8.547-2.761 8.547-11.844zm19.646-24.809v8.958h6.84v4.167h-6.84v18.932c0 3.848 1.428 4.737 4.862 4.737.696 0 1.356-.035 2.033-.088l.426 4.006c-1.245.214-2.814.394-4.044.394-6.144 0-8.745-2.655-8.745-8.462V26.301h-5.59v-4.167h5.59v-8.069l5.468-.889zm32.914 40.678V34.103c0-5.557-1.05-7.926-8.405-7.926-2.279 0-4.899.481-7.036 1.336v26.341h-5.449V9.88h5.449v13.091a30.395 30.395 0 0 1 8.583-1.265c11.007-.035 12.307 4.898 12.307 11.559v20.588h-5.449zm24.55-40.678v8.958h6.377v6.002h-6.377v16.402c0 2.637 1.105 3.671 3.759 3.671.891 0 1.764-.036 2.672-.108l.605 5.629c-1.692.302-3.741.553-5.434.553-6.679 0-9.493-2.922-9.493-8.941V28.136h-5.184v-6.002h5.184v-7.676l7.891-1.282zm11.687 40.678V30.665c0-2.154.072-3.99.268-6.019 3.562-2.083 8.46-2.939 12.751-2.939 1.157 0 2.208.055 3.225.161l-.643 6.34c-.658-.09-1.477-.125-2.28-.125-1.85 0-4.023.338-5.27.979-.143 1.283-.197 2.833-.197 4.256v20.536h-7.854zm19.37-9.689c0-5.61 2.456-9.083 8.779-10.081 3.313-.534 6.662-.658 10.154-.802 0-3.649-1.694-5.307-5.826-5.307-3.828 0-7.997.409-11.2.82l-.644-5.878c3.329-.57 7.783-1.211 12.448-1.211 7.071 0 12.949 1.977 12.949 10.206v13.411c0 2.154-.089 3.989-.269 6.019-3.666 2.138-8.442 2.94-14.175 2.94-8.761 0-12.216-3.403-12.216-10.117zm18.934-5.717c-2.37.124-5.112.194-7.321.713-2.779.657-3.846 1.566-3.846 4.897 0 3.348 1.922 4.221 5.377 4.221 1.764 0 3.884-.125 5.592-.855.142-1.282.198-2.831.198-4.257v-4.719zm31.996-16.314h8.495l-10.67 15.192 11.541 16.527h-9.242l-7.018-10.49-6.91 10.49h-8.69l11.488-16.367-10.688-15.352h9.066l6.341 9.493 6.287-9.493zm31.753 0h8.495L433.92 37.326l11.54 16.527h-9.242l-7.019-10.49-6.91 10.49H413.6l11.487-16.367L414.4 22.134h9.066l6.341 9.493 6.287-9.493zM93.689 43.853a2.092 2.092 0 0 0-2.092 2.091 3.84 3.84 0 0 1-3.838 3.837 3.84 3.84 0 0 1-3.836-3.837V22.116c0-4.422-3.598-8.019-8.019-8.019-4.422 0-8.02 3.597-8.02 8.019v43.473a3.84 3.84 0 0 1-3.836 3.836 3.841 3.841 0 0 1-3.838-3.836V10.26c0-4.423-3.598-8.021-8.02-8.021s-8.019 3.598-8.019 8.021V65.589a3.84 3.84 0 0 1-3.837 3.836 3.84 3.84 0 0 1-3.836-3.836V22.116c0-4.422-3.598-8.019-8.021-8.019-4.422 0-8.02 3.597-8.02 8.019v23.828a3.84 3.84 0 0 1-3.836 3.837 3.84 3.84 0 0 1-3.836-3.837 2.092 2.092 0 0 0-4.183 0c0 4.423 3.598 8.02 8.02 8.02 4.421 0 8.02-3.597 8.02-8.02V22.116a3.84 3.84 0 0 1 3.836-3.836 3.84 3.84 0 0 1 3.837 3.836v43.473c0 4.422 3.598 8.02 8.019 8.02 4.422 0 8.02-3.598 8.02-8.02V10.26a3.84 3.84 0 0 1 3.836-3.838 3.841 3.841 0 0 1 3.836 3.838V65.589c0 4.422 3.598 8.02 8.021 8.02 4.421 0 8.019-3.598 8.019-8.02V22.116a3.84 3.84 0 0 1 3.836-3.836 3.84 3.84 0 0 1 3.836 3.836v23.828c0 4.423 3.598 8.02 8.019 8.02 4.424 0 8.021-3.597 8.021-8.02a2.087 2.087 0 0 0-2.089-2.091z"/></svg>